<?xml version="1.0" encoding="utf-8"?>
<!-- Generator: Adobe Illustrator 23.0.0, SVG Export Plug-In . SVG Version: 6.00 Build 0)  -->
<svg version="1.1" id="Layer_1" xmlns="http://www.w3.org/2000/svg" xmlns:xlink="http://www.w3.org/1999/xlink" x="0px" y="0px"
	 viewBox="0 0 31.7 194.1" style="enable-background:new 0 0 31.7 194.1;" xml:space="preserve">
<style type="text/css">
	.st0{opacity:0.4;enable-background:new    ;}
	.st1{fill:#FFFFFF;}
</style>
<title>2-07</title>
<path class="st0" d="M15.9,0L15.9,0c8.8,0,15.9,7.1,15.9,15.9v162.4c0,8.8-7.1,15.9-15.9,15.9c0,0,0,0,0,0l0,0
	C7.1,194.1,0,187,0,178.2c0,0,0,0,0,0V15.9C0,7.1,7.1,0,15.9,0z"/>
<g>
	<path class="st1" d="M14.7,43.1v3.2h3v-3.5h0.9v4.6h-8.3V43h0.9v3.3h2.6v-3.2H14.7z"/>
	<path class="st1" d="M18.6,39.6l-8.3,2.7v-1.1l4.1-1.3c1.1-0.4,2.1-0.7,3.1-0.9v0c-1-0.2-2-0.6-3.1-0.9l-4.1-1.4v-1.1l8.3,2.9V39.6
		z"/>
	<path class="st1" d="M14.7,30.5v3.2h3v-3.5h0.9v4.6h-8.3v-4.4h0.9v3.3h2.6v-3.2H14.7z"/>
	<path class="st1" d="M18.6,28.7h-8.3v-1.1l4.2-2.6c1-0.6,1.8-1.1,2.7-1.5l0,0c-1.1,0.1-2.1,0.1-3.4,0.1h-3.5v-1h8.3v1.1l-4.2,2.6
		c-0.9,0.6-1.9,1.1-2.8,1.5l0,0c1-0.1,2-0.1,3.4-0.1h3.5V28.7z"/>
	<path class="st1" d="M11.2,19.2v2.5h-0.9v-6h0.9v2.5h7.4v1.1H11.2z"/>
</g>
</svg>
