<?xml version="1.0" encoding="utf-8"?>
<!-- Generator: Adobe Illustrator 23.0.0, SVG Export Plug-In . SVG Version: 6.00 Build 0)  -->
<svg version="1.1" id="Layer_1" xmlns="http://www.w3.org/2000/svg" xmlns:xlink="http://www.w3.org/1999/xlink" x="0px" y="0px"
	 viewBox="0 0 14.4 13.3" style="enable-background:new 0 0 14.4 13.3;" xml:space="preserve">
<style type="text/css">
	.st0{fill:#FFFFFF;}
</style>
<title>4</title>
<path class="st0" d="M11.5,13.3H2.9C1.3,13.3,0,12,0,10.4c0-0.5,0.1-1,0.4-1.5l4.3-7.4c0.8-1.4,2.6-1.9,4-1.1c0.4,0.3,0.8,0.7,1,1.1
	L14,8.9c0.8,1.4,0.3,3.2-1.1,4C12.5,13.2,12,13.3,11.5,13.3z M7.2,0.4C6.3,0.4,5.4,0.9,5,1.7L0.7,9.1c-0.7,1.2-0.3,2.8,0.9,3.5
	c0.4,0.2,0.8,0.3,1.3,0.3h8.6c1.4,0,2.5-1.1,2.5-2.6c0-0.4-0.1-0.9-0.3-1.3L9.4,1.6C9,0.9,8.1,0.4,7.2,0.4z"/>
</svg>
