<?xml version="1.0" encoding="utf-8"?>
<!-- Generator: Adobe Illustrator 23.0.0, SVG Export Plug-In . SVG Version: 6.00 Build 0)  -->
<svg version="1.1" id="Layer_1" xmlns="http://www.w3.org/2000/svg" xmlns:xlink="http://www.w3.org/1999/xlink" x="0px" y="0px"
	 viewBox="0 0 124.9 56.5" style="enable-background:new 0 0 124.9 56.5;" xml:space="preserve">
<style type="text/css">
	.st0{fill:#FFFFFF;}
	.st1{enable-background:new    ;}
	.st2{fill:none;stroke:#FFFFFF;stroke-width:1.18;stroke-miterlimit:10;}
</style>
<g>
	<title>atroon web design</title>
	<g>
		<path class="st0" d="M4,56.4c-0.7,0-1.3-0.1-1.9-0.5c-0.6-0.3-1.1-0.8-1.4-1.3c-0.2-0.4-0.4-0.8-0.5-1.3C0,52.9,0,52.4,0,51.9
			c0-0.6,0.1-1.1,0.3-1.7c0.2-0.6,0.4-1.2,0.7-1.8l1.2,0.6c-0.2,0.5-0.4,1-0.6,1.5c-0.1,0.4-0.2,0.9-0.3,1.4c0,0.4,0,0.8,0.1,1.2
			c0.1,0.4,0.2,0.7,0.4,1c0.2,0.4,0.5,0.7,0.9,0.8c0.4,0.2,0.8,0.3,1.3,0.3h1.6c0.4,0,0.9,0,1.3-0.2c0.3-0.1,0.6-0.2,0.8-0.5
			c0.2-0.2,0.3-0.5,0.4-0.7c0.1-0.3,0.1-0.6,0.1-0.9v-4.8h1.3v4.8c0.1,1-0.3,2-1,2.7c-0.8,0.7-1.8,1-2.9,0.9L4,56.4z M4,47.5
			l1.2-1.2l1.2,1.2l-1.2,1.2L4,47.5z"/>
		<path class="st0" d="M14.5,52.7c-0.4,0-0.7,0-1.1-0.1c-0.3,0-0.5-0.1-0.8-0.3c-0.2-0.1-0.4-0.2-0.5-0.4c-0.1-0.2-0.2-0.4-0.3-0.6
			c-0.1-0.3-0.1-0.5-0.1-0.8c0-0.3,0-0.6,0-1v-6.6h1.3v6.6c0,0.4,0,0.7,0,1c0,0.2,0.1,0.4,0.2,0.6c0.1,0.1,0.3,0.2,0.5,0.3
			c0.3,0.1,0.6,0.1,0.9,0.1L14.5,52.7z"/>
		<path class="st0" d="M23.1,52.7L23.1,52.7c-0.5,0-0.8,0-1.2-0.1c-0.6-0.1-1.1-0.4-1.6-0.8c-0.2-0.2-0.4-0.4-0.6-0.7v0.1
			c0,0,0,0,0,0.1c-0.1,0.3-0.3,0.5-0.5,0.7c-0.2,0.2-0.5,0.4-0.8,0.5c-0.3,0.1-0.6,0.2-0.9,0.3c-0.3,0.1-0.7,0.1-1,0.1h-2v-1.3h2
			c0.2,0,0.5,0,0.7-0.1c0.2,0,0.4-0.1,0.6-0.2c0.2-0.1,0.3-0.2,0.5-0.3c0.1-0.1,0.2-0.2,0.3-0.3c0.1-0.3,0.1-0.5,0-0.8
			c-0.1-0.4-0.3-0.7-0.6-1.1l-1-1.5l-0.7-1l-0.5-0.7l0.3-1l6.3-2.9l0.5,1.2l-5.6,2.6l2.7,3.8c0.3,0.4,0.5,0.7,0.8,1
			c0.2,0.2,0.4,0.5,0.7,0.7c0.2,0.2,0.5,0.3,0.7,0.4c0.3,0.1,0.7,0.1,1,0.1h0.1L23.1,52.7z M16.2,42.6l5.2-2.2l0.3,0.6l-5.5,2.4
			L16.2,42.6z"/>
		<path class="st0" d="M27.6,47.1c0,0.1,0,0.1,0.1,0.2c0,0.1,0,0.3,0.1,0.5c0,0.2,0.1,0.4,0.1,0.6s0.1,0.4,0.1,0.7s0.1,0.4,0.1,0.6
			s0,0.4,0,0.5c0,0.4-0.1,0.8-0.2,1.1c-0.1,0.3-0.3,0.6-0.6,0.8c-0.2,0.2-0.5,0.4-0.8,0.5c-0.3,0.1-0.6,0.1-0.9,0.2h-2.8v-1.3h2.8
			h0.3c0.1,0,0.3-0.1,0.4-0.2c0.1-0.1,0.3-0.2,0.3-0.4c0.1-0.2,0.2-0.5,0.1-0.7c0-0.1,0-0.2,0-0.4c0-0.2,0-0.3-0.1-0.5
			c0-0.2,0-0.4-0.1-0.5s-0.1-0.4-0.1-0.5s-0.1-0.3-0.1-0.4c0-0.1,0-0.2-0.1-0.3L27.6,47.1z M25.5,55.3l-1.1,1.1l-1.1-1.1l1.1-1.1
			L25.5,55.3z M28.1,55.3L27,56.4l-1.1-1.1l1.1-1.1L28.1,55.3z"/>
		<path class="st0" d="M31.6,52.7h-1.3v-9.7h1.3V52.7z"/>
		<path class="st0" d="M31,56.4v-1.3h0.9c0.4,0,0.8,0,1.2-0.2c0.3-0.1,0.6-0.3,0.8-0.5c0.2-0.2,0.4-0.6,0.5-0.9
			c0.1-0.4,0.2-0.8,0.2-1.3v-4.3H36v4.3c0,0.6-0.1,1.2-0.3,1.7c-0.2,0.5-0.4,0.9-0.8,1.3c-0.3,0.4-0.8,0.6-1.3,0.8
			c-0.6,0.2-1.2,0.3-1.8,0.3H31z"/>
		<path class="st0" d="M45,52.7c-0.4,0-0.8-0.1-1.1-0.2c-0.3-0.1-0.6-0.3-0.9-0.5c-0.2-0.2-0.4-0.5-0.6-0.8c-0.1-0.3-0.2-0.7-0.2-1
			c0-0.4,0.1-0.8,0.2-1.2c0.1-0.3,0.3-0.6,0.5-0.9c0.2-0.3,0.4-0.5,0.6-0.8l0.6-0.7l-0.4-0.5l1-0.9c0.2,0.3,0.5,0.5,0.7,0.8
			s0.5,0.5,0.7,0.8s0.5,0.5,0.7,0.8c0.2,0.3,0.4,0.5,0.6,0.8c0.1,0.3,0.3,0.5,0.4,0.8c0.1,0.3,0.1,0.5,0.1,0.8
			c0,0.7-0.3,1.4-0.8,1.9c-0.3,0.2-0.6,0.4-0.9,0.5C45.7,52.6,45.3,52.7,45,52.7z M44.9,47.5c-0.2,0.2-0.3,0.4-0.5,0.6
			c-0.2,0.2-0.3,0.4-0.5,0.6c-0.1,0.2-0.2,0.4-0.3,0.7c-0.1,0.3-0.1,0.5-0.1,0.8c0,0.2,0,0.4,0.1,0.5c0.1,0.1,0.2,0.3,0.3,0.4
			c0.1,0.1,0.3,0.2,0.5,0.2c0.2,0,0.4,0.1,0.6,0.1c0.2,0,0.4,0,0.6-0.1c0.2-0.1,0.3-0.1,0.5-0.3c0.1-0.1,0.2-0.2,0.3-0.4
			c0.1-0.2,0.1-0.3,0.1-0.5c0-0.2-0.1-0.5-0.1-0.7c-0.1-0.2-0.2-0.4-0.4-0.7c-0.2-0.2-0.3-0.4-0.5-0.6L44.9,47.5z"/>
		<path class="st0" d="M47.2,56.4v-1.3h0.9c0.4,0,0.8,0,1.2-0.2c0.7-0.2,1.2-0.7,1.3-1.4c0.1-0.4,0.2-0.8,0.2-1.3v-4.3h1.3v4.3
			c0,0.6-0.1,1.2-0.3,1.7c-0.2,0.5-0.4,0.9-0.8,1.3c-0.3,0.4-0.8,0.6-1.3,0.8c-0.6,0.2-1.2,0.3-1.8,0.3L47.2,56.4z"/>
		<path class="st0" d="M54.4,55.1c0.6,0,1.2,0,1.7-0.2c0.4-0.1,0.8-0.2,1.1-0.5c0.2-0.2,0.4-0.4,0.5-0.7c0.1-0.4,0.2-0.7,0.2-1.1
			h-1.3c-0.3,0-0.7,0-1-0.2c-0.3-0.1-0.6-0.3-0.9-0.5c-0.3-0.2-0.5-0.5-0.7-0.8c-0.2-0.4-0.3-0.8-0.3-1.3c0-0.3,0-0.6,0.1-0.8
			c0-0.2,0.1-0.4,0.2-0.7c0.1-0.2,0.2-0.3,0.3-0.5c0.1-0.1,0.2-0.2,0.3-0.4c0.2-0.2,0.5-0.4,0.9-0.6c0.3-0.1,0.7-0.2,1-0.2
			c0.3,0,0.6,0,0.9,0.2c0.3,0.1,0.5,0.3,0.8,0.5c0.7,0.7,1,1.7,0.9,2.7v2.6c0,0.6-0.1,1.1-0.3,1.7c-0.2,0.5-0.5,0.9-0.9,1.2
			c-0.4,0.3-0.9,0.6-1.5,0.7c-0.7,0.2-1.4,0.2-2.2,0.2L54.4,55.1z M56.7,48.1c-0.4,0-0.8,0.2-1,0.5c-0.3,0.4-0.4,0.9-0.4,1.3
			c0,0.5,0.2,0.9,0.5,1.2l0.3,0.1c0.1,0,0.2,0.1,0.3,0.1h0.2H58V50c0-0.3,0-0.6-0.1-0.8c0-0.2-0.1-0.4-0.2-0.6
			c-0.1-0.1-0.2-0.3-0.3-0.3c-0.1-0.1-0.2-0.1-0.3-0.2c-0.1,0-0.2-0.1-0.3-0.1L56.7,48.1z"/>
		<path class="st0" d="M64.6,52.7c-0.4,0-0.7,0-1.1-0.1c-0.3,0-0.5-0.1-0.8-0.3c-0.2-0.1-0.4-0.3-0.5-0.4c-0.1-0.2-0.2-0.4-0.3-0.6
			c-0.1-0.3-0.1-0.5-0.1-0.8c0-0.3,0-0.7,0-1v-6.6H63v6.6c0,0.3,0,0.7,0,1c0,0.2,0.1,0.4,0.2,0.6c0.1,0.1,0.3,0.2,0.5,0.3
			c0.3,0.1,0.6,0.1,0.9,0.1L64.6,52.7z"/>
		<path class="st0" d="M75.1,52.5c-0.3-0.1-0.6-0.3-0.8-0.6l0,0L74.2,52c-0.2,0.2-0.5,0.4-0.8,0.5c-0.3,0.1-0.6,0.2-0.9,0.2
			c-0.7,0-1.5-0.2-2-0.7c-0.2,0.2-0.5,0.4-0.8,0.5c-0.3,0.1-0.6,0.2-0.9,0.2h-0.1c-0.7,0-1.4-0.2-1.9-0.7c0,0-0.1,0.1-0.1,0.1
			c-0.5,0.4-1.2,0.7-1.9,0.6h-0.5v-1.3h0.5c0.2,0,0.5,0,0.7-0.1c0.2,0,0.3-0.1,0.4-0.3c0.1-0.1,0.2-0.2,0.2-0.4c0-0.2,0-0.4,0-0.5
			v-2.1h1.3v2c0,0.4,0.1,0.7,0.3,1c0.3,0.2,0.6,0.3,1,0.3l0.3,0c0.1,0,0.2-0.1,0.3-0.2c0.1-0.1,0.2-0.2,0.3-0.4
			c0.1-0.2,0.1-0.4,0.1-0.7v-2.1h1.3v2c0,0.4,0.1,0.7,0.3,1c0.4,0.3,0.9,0.4,1.4,0.2c0.1,0,0.3-0.1,0.3-0.2c0.1-0.1,0.2-0.2,0.3-0.4
			c0.1-0.2,0.1-0.4,0.1-0.6v-2.1H75v2.1c0,0.3,0.1,0.7,0.3,0.9c0.3,0.2,0.6,0.3,1,0.3h0.4v1.3h-0.4C75.9,52.7,75.5,52.6,75.1,52.5z
			 M69.2,46.4l-1.1-1.1l1.1-1.1l1.1,1.1L69.2,46.4z M71.5,43.4l-1,1l-1-1l1-1L71.5,43.4z M71.9,46.4l-1.1-1.1l1.1-1.1l1.1,1.1
			L71.9,46.4z"/>
		<path class="st0" d="M81,47c0.4,0,0.8,0.1,1.2,0.3c0.3,0.2,0.6,0.4,0.8,0.7c0.2,0.3,0.4,0.6,0.5,1c0.1,0.4,0.2,0.8,0.2,1.2
			c0,0.4,0,0.8-0.1,1.1c-0.1,0.3-0.2,0.5-0.3,0.8c-0.1,0.2-0.2,0.4-0.4,0.5c-0.1,0.1-0.3,0.2-0.5,0.3c-0.1,0.1-0.3,0.1-0.4,0.1h-0.4
			c-0.2,0-0.4,0-0.6-0.1c-0.2-0.1-0.4-0.1-0.6-0.2c-0.2-0.1-0.4-0.2-0.7-0.3L78.8,52c-0.4,0.4-0.9,0.7-1.4,0.7h-0.8v-1.3h0.8
			c0.2,0,0.3-0.1,0.4-0.2c0.1-0.2,0.2-0.3,0.3-0.5c0.1-0.2,0.2-0.5,0.2-0.7c0.1-0.3,0.1-0.5,0.2-0.8c0.1-0.3,0.2-0.6,0.3-0.8
			c0.1-0.3,0.3-0.5,0.5-0.7c0.2-0.2,0.4-0.4,0.7-0.5C80.3,47,80.6,46.9,81,47z M81.5,51.7h0.1c0.1,0,0.1,0,0.2-0.1
			c0.1,0,0.1-0.1,0.2-0.1c0.1-0.1,0.1-0.2,0.2-0.3c0.1-0.1,0.1-0.3,0.1-0.5c0-0.2,0.1-0.5,0.1-0.7c0,0,0-0.1,0-0.2
			c0-0.1,0-0.2-0.1-0.4c0-0.1-0.1-0.3-0.1-0.4c-0.1-0.1-0.1-0.3-0.3-0.4c-0.1-0.1-0.2-0.2-0.4-0.3c-0.2-0.1-0.4-0.1-0.6-0.1
			c-0.2,0-0.3,0-0.5,0.1c-0.1,0.1-0.3,0.2-0.4,0.3c-0.1,0.1-0.2,0.3-0.2,0.4c-0.1,0.2-0.1,0.4-0.2,0.5c-0.1,0.2-0.1,0.4-0.2,0.6
			c0,0.2-0.1,0.4-0.2,0.6l0.7,0.3c0.2,0.1,0.4,0.2,0.6,0.3c0.2,0.1,0.3,0.1,0.5,0.2C81.2,51.7,81.3,51.7,81.5,51.7L81.5,51.7z"/>
	</g>
	<g class="st1">
		<path class="st0" d="M9.4,17c0.1,0.2,0.1,0.5,0.2,0.8c0.1,0.3,0.1,0.7,0.2,1.1c0.1,0.4,0.1,0.7,0.1,1c0,0.5-0.1,1-0.2,1.4
			c-0.1,0.4-0.3,0.8-0.6,1.1s-0.6,0.6-1,0.8c-0.4,0.2-0.9,0.3-1.4,0.3c-0.6,0-1.1-0.1-1.6-0.4c-0.5-0.3-1-0.6-1.5-1.1
			c0.1,0.9,0.2,1.7,0.3,2.5C4,25.3,4,26,4.1,26.7s0,1.4,0,2.1c0,0.7,0,1.3,0,2H2.9c0-0.9,0-1.8,0-2.7c0-0.9,0-1.9-0.1-3
			c-0.1-1-0.2-2.1-0.3-3.3c-0.2-1.1-0.4-2.3-0.7-3.6c-0.1-0.2-0.1-0.4-0.2-0.6c-0.1-0.2-0.1-0.4-0.2-0.6l1.1-0.4
			c0.1,0.2,0.1,0.4,0.2,0.7c0.1,0.2,0.1,0.4,0.2,0.7c0,0.1,0.1,0.2,0.1,0.4c0.1,0.2,0.2,0.5,0.3,0.8c0.1,0.3,0.3,0.7,0.5,1
			s0.5,0.7,0.7,1s0.6,0.5,1,0.7s0.7,0.3,1.2,0.3c0.6,0,1.1-0.2,1.5-0.6s0.5-1,0.5-1.7c0-0.3,0-0.6-0.1-0.9c-0.1-0.3-0.1-0.7-0.2-0.9
			c-0.1-0.3-0.1-0.5-0.2-0.7C8.2,17.1,8.2,17,8.2,17l1.1-0.4C9.3,16.6,9.4,16.7,9.4,17z"/>
		<path class="st0" d="M20.7,17c0.1,0.2,0.1,0.5,0.2,0.8c0.1,0.3,0.1,0.7,0.2,1.1c0.1,0.4,0.1,0.7,0.1,1c0,0.5-0.1,1-0.2,1.4
			c-0.1,0.4-0.3,0.8-0.6,1.1s-0.6,0.6-1,0.8c-0.4,0.2-0.9,0.3-1.4,0.3c-0.6,0-1.1-0.1-1.6-0.4c-0.5-0.3-1-0.6-1.5-1.1
			c0.1,0.9,0.2,1.7,0.3,2.5c0.1,0.8,0.1,1.5,0.1,2.3s0,1.4,0,2.1c0,0.7,0,1.3,0,2h-1.2c0-0.9,0-1.8,0-2.7c0-0.9,0-1.9-0.1-3
			c-0.1-1-0.2-2.1-0.3-3.3c-0.2-1.1-0.4-2.3-0.7-3.6c-0.1-0.2-0.1-0.4-0.2-0.6c-0.1-0.2-0.1-0.4-0.2-0.6l1.1-0.4
			c0.1,0.2,0.1,0.4,0.2,0.7c0.1,0.2,0.1,0.4,0.2,0.7c0,0.1,0.1,0.2,0.1,0.4c0.1,0.2,0.2,0.5,0.3,0.8c0.1,0.3,0.3,0.7,0.5,1
			s0.5,0.7,0.7,1c0.3,0.3,0.6,0.5,1,0.7s0.7,0.3,1.2,0.3c0.6,0,1.1-0.2,1.5-0.6s0.5-1,0.5-1.7c0-0.3,0-0.6-0.1-0.9
			c-0.1-0.3-0.1-0.7-0.2-0.9c-0.1-0.3-0.1-0.5-0.2-0.7c-0.1-0.2-0.1-0.3-0.1-0.3l1.1-0.4C20.6,16.6,20.7,16.7,20.7,17z"/>
		<path class="st0" d="M27.9,21.5c0.5,0,1,0.1,1.5,0.3c0.5,0.2,0.9,0.5,1.2,0.8c0.3,0.3,0.6,0.7,0.8,1.2c0.2,0.5,0.3,0.9,0.3,1.5
			s-0.1,1-0.3,1.5c-0.2,0.5-0.5,0.9-0.8,1.2c-0.3,0.3-0.7,0.6-1.2,0.8c-0.5,0.2-0.9,0.3-1.5,0.3s-1-0.1-1.5-0.3
			c-0.5-0.2-0.9-0.5-1.2-0.8c-0.3-0.3-0.6-0.7-0.8-1.2c-0.2-0.5-0.3-0.9-0.3-1.5s0.1-1,0.3-1.5c0.2-0.5,0.5-0.8,0.8-1.2
			c0.3-0.3,0.7-0.6,1.2-0.8C26.9,21.5,27.4,21.5,27.9,21.5z M27.9,27.7c0.4,0,0.7-0.1,1-0.2s0.6-0.3,0.8-0.5
			c0.2-0.2,0.4-0.5,0.5-0.8c0.1-0.3,0.2-0.6,0.2-1c0-0.3-0.1-0.7-0.2-1c-0.1-0.3-0.3-0.6-0.5-0.8c-0.2-0.2-0.5-0.4-0.8-0.5
			c-0.3-0.1-0.6-0.2-1-0.2c-0.3,0-0.7,0.1-1,0.2c-0.3,0.1-0.6,0.3-0.8,0.5c-0.2,0.2-0.4,0.5-0.5,0.8c-0.1,0.3-0.2,0.6-0.2,1
			c0,0.4,0.1,0.7,0.2,1c0.1,0.3,0.3,0.6,0.5,0.8c0.2,0.2,0.5,0.4,0.8,0.5S27.6,27.7,27.9,27.7z"/>
		<path class="st0" d="M36,30.8c0-0.2,0-0.5,0-0.7c0-0.2,0-0.5,0-0.8c0-0.8,0-1.7,0-2.6c0-0.9,0-1.9-0.1-3c-0.1-1-0.2-2.1-0.4-3.3
			s-0.5-2.3-0.9-3.5l1.1-0.4c0.3,1.1,0.6,2.2,0.8,3.4c0.2,1.2,0.4,2.4,0.5,3.6c0.1,1.1,0.1,2.1,0.1,3.1c0,1,0,1.8,0,2.6
			c0,0.3,0,0.5,0,0.8c0,0.2,0,0.5,0,0.7H36z"/>
		<path class="st0" d="M51.1,30.9c-0.7-0.9-1.5-2-2.2-3.2c-0.7-1.2-1.3-2.6-1.9-4.1c-0.2-0.5-0.4-1.1-0.6-1.6
			c-0.2-0.5-0.3-1-0.4-1.5c-0.1,0.5-0.3,1-0.4,1.5c-0.2,0.5-0.4,1-0.6,1.6c-0.6,1.5-1.2,2.8-1.9,4.1c-0.7,1.2-1.4,2.3-2.1,3.2
			l-0.9-0.8c0.7-0.8,1.4-1.9,2-3c0.7-1.2,1.2-2.5,1.8-3.9c0.2-0.6,0.4-1.2,0.6-1.8c0.2-0.6,0.3-1.2,0.5-1.7c0.1-0.6,0.2-1.1,0.3-1.5
			c0.1-0.5,0.1-0.9,0.1-1.3h1.2c0,0.4,0,0.8,0.1,1.3s0.2,1,0.3,1.5c0.1,0.6,0.3,1.1,0.5,1.7s0.4,1.2,0.6,1.8
			c0.5,1.4,1.1,2.7,1.8,3.9c0.7,1.2,1.3,2.2,2,3L51.1,30.9z"/>
		<path class="st0" d="M59.3,17.5c-0.1,0-0.2,0.1-0.4,0.1c-0.2,0.1-0.4,0.2-0.7,0.3c-0.3,0.1-0.5,0.2-0.8,0.4s-0.6,0.3-0.9,0.5
			c-0.2,0.2-0.4,0.3-0.7,0.5s-0.4,0.4-0.6,0.6s-0.3,0.4-0.4,0.7c-0.1,0.2-0.1,0.5-0.1,0.7c0,0.3,0.1,0.5,0.3,0.7
			c0.1,0.2,0.3,0.3,0.5,0.5s0.5,0.2,0.7,0.3c0.3,0.1,0.5,0.1,0.8,0.2c0.2,0,0.4,0,0.6,0c0.2,0,0.4,0,0.6,0c0.2,0,0.4,0,0.6,0
			c0.2,0,0.4,0,0.6,0c0.2,0,0.3,0,0.4,0c0.1,0,0.2,0,0.2,0l0.2,1.2c-0.4,0.1-0.8,0.1-1.2,0.3c-0.4,0.1-0.8,0.3-1.1,0.5
			s-0.7,0.4-0.9,0.7c-0.3,0.3-0.5,0.5-0.7,0.8c-0.2,0.4-0.3,0.7-0.4,1.1c-0.1,0.4,0,0.7,0.1,1c0.1,0.3,0.3,0.5,0.5,0.7
			c0.2,0.2,0.5,0.3,0.8,0.4c0.3,0.1,0.6,0.2,0.9,0.2c0.3,0,0.6,0.1,0.9,0.1c0.5,0,0.9,0,1.4-0.1s1-0.2,1.4-0.4l0.5,1.1
			c-0.5,0.2-1,0.4-1.5,0.5s-1,0.2-1.6,0.2h-0.2c-0.4,0-0.8,0-1.3-0.1c-0.4-0.1-0.8-0.2-1.2-0.4c-0.4-0.2-0.7-0.4-1-0.7
			s-0.5-0.6-0.7-1c-0.2-0.5-0.2-1-0.2-1.5s0.2-1.1,0.5-1.6c0.2-0.3,0.4-0.6,0.7-0.9c0.3-0.3,0.5-0.5,0.8-0.7
			c-0.4-0.1-0.7-0.2-1.1-0.3s-0.7-0.3-1-0.5c-0.3-0.2-0.5-0.5-0.7-0.8c-0.2-0.3-0.3-0.6-0.4-1c0-0.4,0-0.8,0.1-1.1
			c0.1-0.3,0.3-0.7,0.5-1s0.5-0.6,0.8-0.8c0.3-0.3,0.6-0.5,0.9-0.7c0.3-0.2,0.6-0.4,0.9-0.5c0.3-0.2,0.6-0.3,0.9-0.4
			c0.3-0.1,0.5-0.2,0.8-0.3c0.2-0.1,0.4-0.1,0.5-0.2L59.3,17.5z"/>
		<path class="st0" d="M68.7,17.3c1,0.5,1.8,1,2.6,1.7c0.8,0.6,1.5,1.4,2,2.2c0.5,0.8,1,1.5,1.2,2.3c0.3,0.8,0.4,1.6,0.4,2.3
			c0,0.9-0.1,1.6-0.4,2.2c-0.3,0.6-0.6,1.2-1.1,1.6c-0.5,0.4-1.1,0.7-1.7,1c-0.7,0.2-1.4,0.3-2.2,0.3c-0.8,0-1.5-0.1-2.2-0.4
			c-0.7-0.2-1.3-0.6-1.8-1c-0.5-0.4-0.9-1-1.2-1.6c-0.3-0.6-0.4-1.4-0.4-2.2c0-0.4,0.1-0.9,0.2-1.3c0.1-0.5,0.3-0.9,0.5-1.4
			c0.2-0.5,0.4-0.9,0.7-1.4s0.5-0.9,0.8-1.4c0.3-0.5,0.6-0.9,0.9-1.3s0.6-0.8,0.8-1.2l0.5-0.7L68.7,17.3z M69.5,29.6
			c0.7,0,1.3-0.1,1.8-0.3c0.5-0.2,1-0.4,1.3-0.8c0.4-0.3,0.6-0.7,0.8-1.2c0.2-0.5,0.3-1,0.3-1.7c0-0.6-0.1-1.3-0.4-1.9
			c-0.2-0.7-0.6-1.3-1.1-2c-0.5-0.6-1-1.2-1.6-1.8c-0.6-0.5-1.3-1-2.1-1.4c-0.4,0.6-0.9,1.3-1.3,1.9s-0.8,1.3-1.1,1.9
			c-0.3,0.6-0.6,1.2-0.8,1.8c-0.2,0.6-0.3,1.1-0.3,1.5c0,0.6,0.1,1.1,0.3,1.6c0.2,0.5,0.5,0.9,0.9,1.2c0.4,0.3,0.8,0.6,1.4,0.8
			C68.3,29.5,68.9,29.6,69.5,29.6z"/>
		<path class="st0" d="M85.6,17c0.1,0.2,0.1,0.5,0.2,0.8c0.1,0.3,0.1,0.7,0.2,1.1c0.1,0.4,0.1,0.7,0.1,1c0,0.5-0.1,1-0.2,1.4
			c-0.1,0.4-0.3,0.8-0.6,1.1s-0.6,0.6-1,0.8c-0.4,0.2-0.9,0.3-1.4,0.3c-0.6,0-1.1-0.1-1.6-0.4c-0.5-0.3-1-0.6-1.5-1.1
			c0.1,0.9,0.2,1.7,0.3,2.5c0.1,0.8,0.1,1.5,0.1,2.3s0,1.4,0,2.1c0,0.7,0,1.3,0,2H79c0-0.9,0-1.8,0-2.7c0-0.9,0-1.9-0.1-3
			c-0.1-1-0.2-2.1-0.3-3.3c-0.2-1.1-0.4-2.3-0.7-3.6c-0.1-0.2-0.1-0.4-0.2-0.6c-0.1-0.2-0.1-0.4-0.2-0.6l1.1-0.4
			c0.1,0.2,0.1,0.4,0.2,0.7c0.1,0.2,0.1,0.4,0.2,0.7c0,0.1,0.1,0.2,0.1,0.4c0.1,0.2,0.2,0.5,0.3,0.8c0.1,0.3,0.3,0.7,0.5,1
			s0.5,0.7,0.7,1s0.6,0.5,1,0.7s0.7,0.3,1.2,0.3c0.6,0,1.1-0.2,1.5-0.6s0.5-1,0.5-1.7c0-0.3,0-0.6-0.1-0.9c-0.1-0.3-0.1-0.7-0.2-0.9
			c-0.1-0.3-0.1-0.5-0.2-0.7c-0.1-0.2-0.1-0.3-0.1-0.3l1.1-0.4C85.4,16.6,85.5,16.7,85.6,17z"/>
	</g>
	<path class="st2" d="M124.3,16.8c-0.1,9-7.3,16.3-16.4,16.4c-2.5,0-4.9-0.5-7.2-1.6l-0.3,0.1L97,32.8l-3.5,1.1
		c-0.9,0.3-1.8-0.2-2.1-1c-0.1-0.3-0.1-0.7,0-1.1l1.1-3.5l1.1-3.5l0.1-0.2c-1.2-2.3-1.8-4.9-1.8-7.5C91.8,8,99,0.7,108.1,0.6
		c8.9-0.1,16.1,7.1,16.2,16C124.3,16.6,124.3,16.7,124.3,16.8z"/>
	<path class="st0" d="M114.3,26.4c-0.8,0.1-5.2,0.6-10.8-5s-5.1-10.1-5-10.8s2.3-5,4.4-2.2c1.2,1.5,1.9,3.3,2.1,5.2l-0.7,0.6
		c-1.5,1.2-0.4,2.3-0.4,2.3l4.7,4.7c0,0,1,1.1,2.3-0.4l0.6-0.7c1.9,0.1,3.7,0.9,5.2,2.1C119.3,24.1,115.1,26.3,114.3,26.4z"/>
</g>
</svg>
