<?xml version="1.0" encoding="utf-8"?>
<!-- Generator: Adobe Illustrator 23.0.0, SVG Export Plug-In . SVG Version: 6.00 Build 0)  -->
<svg version="1.1" id="Layer_1" xmlns="http://www.w3.org/2000/svg" xmlns:xlink="http://www.w3.org/1999/xlink" x="0px" y="0px"
	 viewBox="0 0 170.8 43.3" style="enable-background:new 0 0 170.8 43.3;" xml:space="preserve">
<style type="text/css">
	.st0{fill:#CEB06B;}
	.st1{fill:url(#SVGID_1_);}
	.st2{fill:url(#SVGID_2_);}
	.st3{fill:none;stroke:#CEB06B;stroke-miterlimit:10;}
</style>
<title>1</title>
<g>
	<g>
		<path class="st0" d="M165.5,7.3L165.5,7.3v20.6L154.7,9.1c-0.6-1-1.6-1.7-2.7-1.8c-2.1-0.3-4,1.4-4,3.5v20.6
			c0,2.7,2.2,4.8,4.8,4.8V15.6l10.9,18.8c0.6,1.1,1.8,1.8,3.1,1.8l0,0c1.9,0,3.5-1.6,3.5-3.5V12.1C170.3,9.4,168.1,7.3,165.5,7.3z"
			/>
		<path class="st0" d="M84.4,16.6c-0.2-5.2-4.7-9.3-9.9-9.3h-4.6l0,0H58.4h-4.8H40.3l2.8,4.8h10.5v20c0,2.3,1.9,4.2,4.2,4.2h0.6
			V12.1h4.5h4.3h7.5c2.6,0,4.9,2,5,4.6c0.1,2.7-1.9,4.9-4.5,5H71l0,0h-3.2v-4.8H63v4.8v4.8v4.8c0,2.7,2.2,4.8,4.8,4.8v-9.7h6
			l5.6,9.7H85l-6.3-10.3C82.1,24.1,84.5,20.7,84.4,16.6z"/>
		<path class="st0" d="M100.3,7.3c-8,0-14.5,6.5-14.5,14.5s6.5,14.5,14.5,14.5s14.5-6.5,14.5-14.5S108.3,7.3,100.3,7.3z M100.3,31.4
			c-5.3,0-9.7-4.3-9.7-9.7c0-5.3,4.3-9.7,9.7-9.7c5.3,0,9.7,4.3,9.7,9.7C110,27.1,105.6,31.4,100.3,31.4z"/>
		<path class="st0" d="M131.1,7.3c-8,0-14.5,6.5-14.5,14.5s6.5,14.5,14.5,14.5s14.5-6.5,14.5-14.5S139.1,7.3,131.1,7.3z M131.1,31.4
			c-5.3,0-9.7-4.3-9.7-9.7c0-5.3,4.3-9.7,9.7-9.7c5.3,0,9.7,4.3,9.7,9.7C140.7,27.1,136.4,31.4,131.1,31.4z"/>
	</g>
	<g>
		<path class="st0" d="M57.3,43.1c-0.2,0.1-0.7,0.2-1.3,0.2c-1.3,0-2.4-0.8-2.4-2.1s1-2.2,2.5-2.2c0.6,0,1,0.1,1.1,0.2l-0.1,0.4
			c-0.2-0.1-0.6-0.2-1-0.2c-1.1,0-1.9,0.6-1.9,1.7c0,1,0.7,1.7,1.8,1.7c0.4,0,0.8-0.1,1-0.2L57.3,43.1z"/>
		<path class="st0" d="M62.6,39.1c0.3-0.1,0.8-0.1,1.2-0.1c0.7,0,1.1,0.1,1.4,0.3c0.2,0.2,0.4,0.5,0.4,0.8c0,0.6-0.4,0.9-0.9,1.1
			l0,0c0.4,0.1,0.6,0.4,0.7,0.8c0.2,0.6,0.3,1,0.4,1.2h-0.6c-0.1-0.1-0.2-0.5-0.3-1c-0.1-0.6-0.4-0.8-1-0.8h-0.6v1.8h-0.6L62.6,39.1
			L62.6,39.1z M63.2,41.1h0.6c0.7,0,1.1-0.3,1.1-0.8s-0.4-0.8-1.1-0.8c-0.3,0-0.5,0-0.6,0V41.1z"/>
		<path class="st0" d="M73.4,41.3h-1.9v1.5h2.1v0.5h-2.7v-4.2h2.6v0.5h-2v1.3h1.9L73.4,41.3L73.4,41.3z"/>
		<path class="st0" d="M79.7,41.9l-0.5,1.3h-0.6l1.6-4.2h0.7l1.6,4.2h-0.7l-0.5-1.3H79.7z M81.2,41.6l-0.5-1.2
			c-0.1-0.3-0.2-0.5-0.2-0.8l0,0c-0.1,0.2-0.1,0.5-0.2,0.8l-0.5,1.2H81.2z"/>
		<path class="st0" d="M88.1,39.6h-1.5v-0.5h3.5v0.5h-1.4v3.7h-0.6V39.6z"/>
		<path class="st0" d="M95.8,39.1v4.2h-0.6v-4.2H95.8z"/>
		<path class="st0" d="M102.4,43.3l-1.6-4.2h0.7l0.7,2.1c0.2,0.6,0.4,1.1,0.5,1.6l0,0c0.1-0.5,0.3-1,0.5-1.6l0.8-2.1h0.7l-1.7,4.2
			H102.4z"/>
		<path class="st0" d="M112.3,41.3h-1.9v1.5h2.1v0.5h-2.7v-4.2h2.6v0.5h-2v1.3h1.9L112.3,41.3L112.3,41.3z"/>
		<path class="st0" d="M124.6,41.9l-0.5,1.3h-0.6l1.6-4.2h0.7l1.6,4.2h-0.7l-0.5-1.3H124.6z M126.2,41.6l-0.5-1.2
			c-0.1-0.3-0.2-0.5-0.2-0.8l0,0c-0.1,0.2-0.1,0.5-0.2,0.8l-0.5,1.2H126.2z"/>
		<path class="st0" d="M136.2,43.1c-0.3,0.1-0.8,0.2-1.5,0.2s-1.3-0.2-1.8-0.6c-0.4-0.3-0.7-0.9-0.7-1.6c0-1.3,1-2.2,2.6-2.2
			c0.6,0,1,0.1,1.2,0.2l-0.1,0.4c-0.3-0.1-0.6-0.2-1.1-0.2c-1.2,0-1.9,0.6-1.9,1.7c0,1.1,0.7,1.7,1.8,1.7c0.4,0,0.7,0,0.8-0.1v-1.3
			h-1v-0.4h1.6L136.2,43.1L136.2,43.1z"/>
		<path class="st0" d="M144.1,41.3h-1.9v1.5h2.1v0.5h-2.7v-4.2h2.6v0.5h-2v1.3h1.9L144.1,41.3L144.1,41.3z"/>
		<path class="st0" d="M149.6,43.3v-4.2h0.7l1.5,2.1c0.4,0.5,0.6,0.9,0.9,1.4l0,0c-0.1-0.6-0.1-1.1-0.1-1.7v-1.8h0.6v4.2h-0.6
			l-1.5-2.1c-0.3-0.5-0.7-0.9-0.9-1.4l0,0c0,0.5,0,1,0,1.7v1.8H149.6z"/>
		<path class="st0" d="M162.1,43.1c-0.2,0.1-0.7,0.2-1.3,0.2c-1.3,0-2.4-0.8-2.4-2.1s1-2.2,2.5-2.2c0.6,0,1,0.1,1.1,0.2l-0.1,0.4
			c-0.2-0.1-0.6-0.2-1-0.2c-1.1,0-1.9,0.6-1.9,1.7c0,1,0.7,1.7,1.8,1.7c0.4,0,0.8-0.1,1-0.2L162.1,43.1z"/>
		<path class="st0" d="M168.5,43.3v-1.8l-1.5-2.4h0.7l0.7,1.2c0.2,0.3,0.3,0.6,0.5,0.9l0,0c0.1-0.3,0.3-0.5,0.5-0.9l0.7-1.2h0.7
			l-1.6,2.4v1.8H168.5z"/>
	</g>
	<g>
		<path class="st0" d="M26.5,30.9l3.1,5.4H10.7c-2.8,0-4.5-3-3.1-5.4L20.2,9.1c1.4-2.4,4.9-2.4,6.3,0l12.6,21.8
			c1.4,2.4-0.3,5.4-3.1,5.4l0,0L23.4,14.4L14,30.8h12.5V30.9z"/>
		
			<linearGradient id="SVGID_1_" gradientUnits="userSpaceOnUse" x1="15.5483" y1="838.65" x2="15.5483" y2="857.9731" gradientTransform="matrix(1 0 0 -1 0 869.5)">
			<stop  offset="0" style="stop-color:#4D4D4D"/>
			<stop  offset="2.023089e-02" style="stop-color:#555350;stop-opacity:0.9798"/>
			<stop  offset="0.1379" style="stop-color:#81745E;stop-opacity:0.8621"/>
			<stop  offset="0.2608" style="stop-color:#A7906A;stop-opacity:0.7392"/>
			<stop  offset="0.3877" style="stop-color:#C6A774;stop-opacity:0.6123"/>
			<stop  offset="0.52" style="stop-color:#DEB87B;stop-opacity:0.48"/>
			<stop  offset="0.6597" style="stop-color:#EFC581;stop-opacity:0.3403"/>
			<stop  offset="0.8119" style="stop-color:#F9CD84;stop-opacity:0.1881"/>
			<stop  offset="1" style="stop-color:#FDCF85;stop-opacity:0"/>
		</linearGradient>
		<path class="st1" d="M19.5,11.6L8.8,30.1c-0.2,0.4,0.1,0.8,0.5,0.8h4.6l8.4-14.5L19.5,11.6z"/>
		
			<linearGradient id="SVGID_2_" gradientUnits="userSpaceOnUse" x1="2165.8328" y1="1106.3464" x2="2168.969" y2="1088.5599" gradientTransform="matrix(-0.5 0.866 0.866 0.5 164.1195 -2405.4023)">
			<stop  offset="0" style="stop-color:#FDCF85;stop-opacity:0"/>
			<stop  offset="0.1881" style="stop-color:#F9CD84;stop-opacity:0.1881"/>
			<stop  offset="0.3403" style="stop-color:#EFC581;stop-opacity:0.3403"/>
			<stop  offset="0.48" style="stop-color:#DEB87B;stop-opacity:0.48"/>
			<stop  offset="0.6123" style="stop-color:#C6A774;stop-opacity:0.6123"/>
			<stop  offset="0.7392" style="stop-color:#A7906A;stop-opacity:0.7392"/>
			<stop  offset="0.8621" style="stop-color:#81745E;stop-opacity:0.8621"/>
			<stop  offset="0.9798" style="stop-color:#555350;stop-opacity:0.9798"/>
			<stop  offset="1" style="stop-color:#4D4D4D"/>
		</linearGradient>
		<path class="st2" d="M37.3,29.1L26.6,10.6c-0.2-0.4-0.7-0.4-0.9,0l-2.3,4l8.4,14.5H37.3z"/>
	</g>
	<g>
		<path class="st0" d="M34.7,2.3c-0.6,0-1.1,0.5-1.1,1.1s0.5,1.1,1.1,1.1s1.1-0.5,1.1-1.1S35.3,2.3,34.7,2.3z M34.7,4.3
			c-0.5,0-0.9-0.4-0.9-0.9s0.4-0.9,0.9-0.9s0.9,0.4,0.9,0.9S35.2,4.3,34.7,4.3z"/>
		<path class="st0" d="M35.1,3.3c0-0.2-0.2-0.4-0.4-0.4h-0.4c-0.1,0-0.1,0-0.1,0.1v1c0,0.1,0,0.1,0.1,0.1s0.1,0,0.1-0.1V3.6l0,0h0.2
			L34.9,4H35c0,0,0,0,0.1,0c0,0,0.1-0.1,0-0.1l-0.2-0.3C35,3.6,35.1,3.4,35.1,3.3z M34.7,3.4h-0.3l0,0V3h0.3c0.1,0,0.2,0.1,0.2,0.2
			C34.9,3.4,34.9,3.4,34.7,3.4z"/>
	</g>
	<path class="st3" d="M32.6,42.6H10.4c-7.6,0-12.4-8.2-8.6-14.8L14.7,5.4c3.8-6.6,13.3-6.6,17.1,0l12.9,22.3
		c3.8,6.6-1,14.8-8.6,14.8H32.6"/>
</g>
</svg>
