<svg id="Layer_1" data-name="Layer 1" xmlns="http://www.w3.org/2000/svg" viewBox="0 0 34.24 34.52"><defs><style>.cls-1{fill:none;stroke:#fff;stroke-miterlimit:10;stroke-width:1.18px;}.cls-2{fill:#fff;}</style></defs><title>8-07</title><path class="cls-1" d="M1865.86,980a16.52,16.52,0,0,1-16.36,16.42,16,16,0,0,1-7.16-1.61,1.57,1.57,0,0,1-.3.12l-3.51,1.07-3.52,1.07a1.67,1.67,0,0,1-2.12-2.11l1.06-3.51,1.06-3.52.06-.18a16,16,0,0,1-1.81-7.51,16.52,16.52,0,0,1,16.36-16.42,16.08,16.08,0,0,1,16.24,15.92Z" transform="translate(-1832.21 -963.23)"/><path class="cls-2" d="M1855.9,989.64c-.76.1-5.19.59-10.82-5s-5.13-10.06-5-10.82,2.3-5,4.41-2.22a9.08,9.08,0,0,1,2.07,5.16l-.69.56c-1.46,1.23-.39,2.27-.39,2.27l4.68,4.68s1,1.07,2.27-.4l.56-.69a9.12,9.12,0,0,1,5.15,2.07C1860.92,987.34,1856.72,989.53,1855.9,989.64Z" transform="translate(-1832.21 -963.23)"/></svg>