<svg id="Layer_1" data-name="Layer 1" xmlns="http://www.w3.org/2000/svg" viewBox="0 0 1920 1080"><defs><style>.cls-1{fill:#fff;}</style></defs><title>9</title><path class="cls-1" d="M1738.93,103.62a1.59,1.59,0,0,1-.74-.57,2,2,0,0,1-.34-.93,7.75,7.75,0,0,1-.09-1.26V94.08h.86v6.78a10,10,0,0,0,0,1,1.28,1.28,0,0,0,.2.65.93.93,0,0,0,.49.33,3.39,3.39,0,0,0,.88.09h.1v.84h-.1A3.84,3.84,0,0,1,1738.93,103.62Z"/><path class="cls-1" d="M1744.68,98.12a2,2,0,0,1,1,.26,2.67,2.67,0,0,1,.82.76,3.36,3.36,0,0,1,.5,1,3.7,3.7,0,0,1,.17,1.09,4.12,4.12,0,0,1-.05.7,4.81,4.81,0,0,1-.14.68,3.73,3.73,0,0,1-.26.61,1.86,1.86,0,0,1-.39.48,1.72,1.72,0,0,1-.51.33,1.78,1.78,0,0,1-.67.12,2.52,2.52,0,0,1-.67-.09,5.58,5.58,0,0,1-.69-.23c-.23-.1-.49-.22-.76-.36l-.88-.45a1.65,1.65,0,0,1-1.46.81h-.61V103h.61a.79.79,0,0,0,.45-.12.91.91,0,0,0,.34-.36,2.93,2.93,0,0,0,.28-.64c.08-.25.15-.51.23-.78s.19-.67.3-1a3.39,3.39,0,0,1,.44-.92A2.25,2.25,0,0,1,1744.68,98.12Zm.45,5.17a.94.94,0,0,0,.42-.11,1,1,0,0,0,.39-.36,2,2,0,0,0,.27-.64,3.91,3.91,0,0,0,.1-1,2.71,2.71,0,0,0-.13-.83,2.63,2.63,0,0,0-.37-.75,2.59,2.59,0,0,0-.18-.21,1.7,1.7,0,0,0-.24-.22,2,2,0,0,0-.32-.17,1,1,0,0,0-.39-.07,1.53,1.53,0,0,0-.74.16,1.39,1.39,0,0,0-.51.46,2.92,2.92,0,0,0-.36.73c-.1.29-.19.62-.3,1,0,.17-.09.33-.13.49l-.15.46.81.42c.25.13.48.25.7.34a3.4,3.4,0,0,0,.6.22A1.41,1.41,0,0,0,1745.13,103.29Z"/><path class="cls-1" d="M1755.07,103.62a1.67,1.67,0,0,1-.75-.57,2.28,2.28,0,0,1-.34-.93,9.21,9.21,0,0,1-.08-1.26V94.08h.85v6.78a9.62,9.62,0,0,0,0,1,1.28,1.28,0,0,0,.2.65.93.93,0,0,0,.49.33,3.39,3.39,0,0,0,.88.09h.09v.84h-.09A3.84,3.84,0,0,1,1755.07,103.62Z"/><path class="cls-1" d="M1759.88,99c.06.24.1.48.15.73s.08.51.11.77,0,.51.06.74a2.87,2.87,0,0,1-.14,1,3,3,0,0,1-.42.83,2.14,2.14,0,0,1-.69.58,1.84,1.84,0,0,1-.91.23h-1.77V103H1758a1.36,1.36,0,0,0,.58-.17,1.3,1.3,0,0,0,.41-.4,1.67,1.67,0,0,0,.25-.54,1.86,1.86,0,0,0,.08-.62,5.6,5.6,0,0,0,0-.69c0-.23-.06-.47-.11-.7s-.09-.46-.14-.67-.1-.42-.14-.61l.81-.25C1759.78,98.52,1759.83,98.74,1759.88,99Zm-2,7.31.78-.78.81.79-.8.79Z"/><path class="cls-1" d="M1783.18,98.52l.12.42.14.57c0,.21.09.43.14.66s.08.45.11.67a4.41,4.41,0,0,1,0,.6,3.06,3.06,0,0,1-.06.63,2.65,2.65,0,0,1-.17.5,1.76,1.76,0,0,1-.24.38,1.88,1.88,0,0,1-.93.7,2.65,2.65,0,0,1-.81.15h0a2.56,2.56,0,0,1-1.89-.68l-.11-.12-.09-.13a1.08,1.08,0,0,1-.16.2,1.06,1.06,0,0,1-.15.15,2.19,2.19,0,0,1-.72.43,2.32,2.32,0,0,1-.84.15,2.5,2.5,0,0,1-1.74-.58v.92a3.54,3.54,0,0,1-.72,2.38,2.69,2.69,0,0,1-1.16.77,4.91,4.91,0,0,1-1.77.28h-1.63a3.75,3.75,0,0,1-1.78-.43,3.46,3.46,0,0,1-1.3-1.22,3.55,3.55,0,0,1-.3-.58,4,4,0,0,1-.2-.64,5.44,5.44,0,0,1-.14-1.48,9.77,9.77,0,0,1,1-3.69l.76.36a10.6,10.6,0,0,0-.66,1.66,8.06,8.06,0,0,0-.29,1.5,4.38,4.38,0,0,0,.07,1.32,3,3,0,0,0,.43,1.1,2.6,2.6,0,0,0,1,.93,2.9,2.9,0,0,0,1.38.33h1.63a2.88,2.88,0,0,0,2.29-.76,2.72,2.72,0,0,0,.52-1.83v-5h.84v1.5a2.6,2.6,0,0,0,.53,1.86,1.18,1.18,0,0,0,.49.31,2.5,2.5,0,0,0,.72.1,1.68,1.68,0,0,0,1-.34,1.39,1.39,0,0,0,.34-.47,1.67,1.67,0,0,0,.13-.71V99.2h.84v2.25c0,1,.55,1.5,1.64,1.52h0a1.67,1.67,0,0,0,.49-.08,1.13,1.13,0,0,0,.45-.26,1.17,1.17,0,0,0,.33-.47,1.67,1.67,0,0,0,.13-.71,3.74,3.74,0,0,0,0-.55c0-.2-.06-.41-.1-.62s-.09-.42-.14-.62-.09-.37-.14-.53-.08-.29-.1-.38a1,1,0,0,1,0-.16l.79-.24A.8.8,0,0,1,1783.18,98.52Z"/><path class="cls-1" d="M1786.82,103.62a1.57,1.57,0,0,1-.75-.57,2.15,2.15,0,0,1-.34-.93,7.85,7.85,0,0,1-.08-1.26V94.08h.85v6.78a10,10,0,0,0,0,1,1.39,1.39,0,0,0,.2.65,1,1,0,0,0,.49.33,3.48,3.48,0,0,0,.89.09h.09v.84h-.09A3.76,3.76,0,0,1,1786.82,103.62Z"/><path class="cls-1" d="M1796.19,103.81a2.88,2.88,0,0,1-.89-.13,1.7,1.7,0,0,1-.66-.39,1.42,1.42,0,0,1-.24-.25,1.86,1.86,0,0,1-.29.44,1.63,1.63,0,0,1-.39.35,2.15,2.15,0,0,1-.46.22,1.81,1.81,0,0,1-.51.08,2.63,2.63,0,0,1-.67-.09,5.46,5.46,0,0,1-.69-.22c-.24-.1-.5-.22-.77-.36l-.87-.46a1.68,1.68,0,0,1-1.46.81H1788V103h.34a.84.84,0,0,0,.45-.12,1,1,0,0,0,.34-.36,2.93,2.93,0,0,0,.28-.64c.07-.25.15-.51.23-.78s.09-.33.14-.5.1-.34.16-.5.12-.32.19-.48a3.83,3.83,0,0,1,.25-.44,2.24,2.24,0,0,1,2-1,2,2,0,0,1,1,.26,2.56,2.56,0,0,1,.82.76,3.13,3.13,0,0,1,.5,1,3.7,3.7,0,0,1,.17,1.09,1.93,1.93,0,0,0,.44,1.47,1,1,0,0,0,.39.22,2.32,2.32,0,0,0,.59.07h.14v.84Zm-3.44-.52a.94.94,0,0,0,.42-.11,1.09,1.09,0,0,0,.39-.36,2,2,0,0,0,.27-.64,3.91,3.91,0,0,0,.1-1,2.71,2.71,0,0,0-.13-.83,2.63,2.63,0,0,0-.37-.75l-.18-.21a1.36,1.36,0,0,0-.25-.22,1.54,1.54,0,0,0-.31-.17,1,1,0,0,0-.38-.07,1.54,1.54,0,0,0-.75.16,1.39,1.39,0,0,0-.51.46,2.92,2.92,0,0,0-.36.73c-.1.29-.2.62-.29,1-.05.17-.1.33-.14.49l-.15.46.81.43c.25.13.48.24.7.33a3.4,3.4,0,0,0,.6.22A2.09,2.09,0,0,0,1792.75,103.29Z"/><path class="cls-1" d="M1800.72,99c.06.24.1.48.15.73s.08.51.11.77,0,.51.06.74a2.87,2.87,0,0,1-.14,1,3,3,0,0,1-.42.83,2.14,2.14,0,0,1-.69.58,1.84,1.84,0,0,1-.91.23h-2.83V103h2.83a1.36,1.36,0,0,0,.58-.17,1.3,1.3,0,0,0,.41-.4,1.93,1.93,0,0,0,.26-.54,2.15,2.15,0,0,0,.07-.62,5.6,5.6,0,0,0,0-.69c0-.23-.06-.47-.11-.7s-.09-.46-.14-.67-.09-.42-.14-.61l.81-.25C1800.62,98.52,1800.67,98.74,1800.72,99Zm-3-2.42-.85-.85.42-.43c.13-.12.26-.26.41-.42l.86.86Zm2.77,0-.85-.85.42-.42.41-.42.86.85Z"/><path class="cls-1" d="M1808,104.72h-.8l4.45-11.58h.79Z"/><path class="cls-1" d="M1820,103.62a1.57,1.57,0,0,1-.75-.57,2.15,2.15,0,0,1-.34-.93,7.85,7.85,0,0,1-.08-1.26V94.08h.85v6.78a10,10,0,0,0,0,1,1.39,1.39,0,0,0,.2.65.93.93,0,0,0,.49.33,3.44,3.44,0,0,0,.88.09h.1v.84h-.1A3.74,3.74,0,0,1,1820,103.62Z"/><path class="cls-1" d="M1825.7,98.12a2,2,0,0,1,1,.26,2.7,2.7,0,0,1,.83.76,3.34,3.34,0,0,1,.49,1,3.4,3.4,0,0,1,.17,1.09,5.48,5.48,0,0,1,0,.7,4.82,4.82,0,0,1-.15.68,3,3,0,0,1-.26.61,1.83,1.83,0,0,1-.38.48,1.68,1.68,0,0,1-1.19.45,2.52,2.52,0,0,1-.67-.09,5,5,0,0,1-.68-.23c-.24-.1-.5-.22-.76-.36l-.89-.45a1.65,1.65,0,0,1-1.46.81h-.61V103h.61a.79.79,0,0,0,.45-.12.91.91,0,0,0,.34-.36,2.93,2.93,0,0,0,.28-.64c.08-.25.15-.51.23-.78s.19-.67.3-1a3.74,3.74,0,0,1,.45-.92A2.23,2.23,0,0,1,1825.7,98.12Zm.44,5.17a1,1,0,0,0,.43-.11,1,1,0,0,0,.38-.36,2,2,0,0,0,.27-.64,3.87,3.87,0,0,0,.11-1,2.73,2.73,0,0,0-.14-.83,2.63,2.63,0,0,0-.37-.75,2.25,2.25,0,0,0-.17-.21,1.79,1.79,0,0,0-.25-.22,1.62,1.62,0,0,0-.32-.17,1,1,0,0,0-.38-.07,1.54,1.54,0,0,0-.75.16,1.29,1.29,0,0,0-.5.46,2.92,2.92,0,0,0-.36.73c-.1.29-.2.62-.3,1,0,.17-.09.33-.14.49s-.1.31-.15.46l.81.42c.25.13.48.25.7.34a3.4,3.4,0,0,0,.6.22A1.41,1.41,0,0,0,1826.14,103.29Z"/><path class="cls-1" d="M1837.38,103.81a3.18,3.18,0,0,1-1.08-.19,2.9,2.9,0,0,1-.89-.52,2.59,2.59,0,0,1-.6-.76,2.06,2.06,0,0,1-.22-.94,2.75,2.75,0,0,1,.13-.88,3.31,3.31,0,0,1,.32-.74,4.08,4.08,0,0,1,.42-.61l.41-.5.22-.26a3.32,3.32,0,0,1,.25-.27l.24-.26.22-.22-.54-.59.62-.56.17.17.4.45.55.61c.2.22.4.44.58.66s.44.51.64.76a6.24,6.24,0,0,1,.5.72,3.66,3.66,0,0,1,.34.73,2.42,2.42,0,0,1,.12.76,2.19,2.19,0,0,1-.22,1,2.44,2.44,0,0,1-.64.8,2.67,2.67,0,0,1-.89.49A3,3,0,0,1,1837.38,103.81Zm0-5.53-.2.21-.22.23-.22.24-.2.23c-.11.13-.22.28-.36.43s-.24.33-.35.51a4.11,4.11,0,0,0-.28.6,2.09,2.09,0,0,0-.11.67,1.26,1.26,0,0,0,.15.59,1.48,1.48,0,0,0,.41.5,2,2,0,0,0,.65.35,2.11,2.11,0,0,0,.75.13,2.44,2.44,0,0,0,.77-.13,2,2,0,0,0,.62-.34,1.48,1.48,0,0,0,.42-.51,1.22,1.22,0,0,0,.16-.62,1.63,1.63,0,0,0-.09-.52,2.53,2.53,0,0,0-.27-.55,5,5,0,0,0-.43-.62l-.61-.74Z"/><path class="cls-1" d="M1839.62,107.58v-.84h1a3,3,0,0,0,2.34-.83,3.43,3.43,0,0,0,.68-2.33V99.2h.84v4.38a4.11,4.11,0,0,1-1,3,3.84,3.84,0,0,1-2.88,1Z"/><path class="cls-1" d="M1847.52,103.62a1.57,1.57,0,0,1-.75-.57,2.15,2.15,0,0,1-.34-.93,9.21,9.21,0,0,1-.08-1.26V94.08h.85v6.78a10,10,0,0,0,0,1,1.38,1.38,0,0,0,.21.65.9.9,0,0,0,.48.33,3.48,3.48,0,0,0,.89.09h.09v.84h-.09A3.8,3.8,0,0,1,1847.52,103.62Z"/><path class="cls-1" d="M1852.33,99c.05.24.1.48.14.73s.08.51.12.77.05.51.06.74a3.14,3.14,0,0,1-.14,1,2.73,2.73,0,0,1-.43.83,2,2,0,0,1-.68.58,1.86,1.86,0,0,1-.91.23h-1.78V103h1.78a1.27,1.27,0,0,0,.57-.17,1.24,1.24,0,0,0,.42-.4,1.91,1.91,0,0,0,.25-.54,2.15,2.15,0,0,0,.08-.62c0-.22,0-.45,0-.69s-.07-.47-.11-.7-.09-.46-.14-.67-.1-.42-.14-.61l.81-.25C1852.22,98.52,1852.27,98.74,1852.33,99Zm-2,7.31.78-.78.8.79-.79.79Z"/><path class="cls-1" d="M1853,107.58v-.84h1a3,3,0,0,0,2.35-.83,3.48,3.48,0,0,0,.68-2.33V99.2h.84v4.38a4.16,4.16,0,0,1-1,3,3.85,3.85,0,0,1-2.89,1Z"/><path class="cls-1" d="M1862.52,103.86a7.42,7.42,0,0,1-1-.08,6.09,6.09,0,0,1-1-.24,4.69,4.69,0,0,1-.81-.35l-.36-.22.43-.72.36.22a3.31,3.31,0,0,0,.68.29,5.7,5.7,0,0,0,.84.19,6.4,6.4,0,0,0,.88.07,4.35,4.35,0,0,0,.83-.07,2.13,2.13,0,0,0,.75-.26,1.06,1.06,0,0,0,.43-.47,1,1,0,0,0,0-.55,1.71,1.71,0,0,0-.26-.6l-.9-1.35c-.25-.38-.46-.69-.63-1l-.42-.63-.24-.37c-.06-.08-.09-.14-.12-.17l0,0-.22-.35.71-.45c0,.06.08.13.12.2l.19.27c.07.12.16.26.28.44l.43.66c.18.26.39.58.64,1l.89,1.34a2.38,2.38,0,0,1,.4,1,1.77,1.77,0,0,1-.12.94,1.87,1.87,0,0,1-.67.81,2.92,2.92,0,0,1-1.14.43A5.49,5.49,0,0,1,1862.52,103.86Z"/></svg>